<mxfile host="app.diagrams.net" modified="2024-05-24T22:29:25.065Z" agent="Mozilla/5.0 (Windows NT 10.0; Win64; x64) AppleWebKit/537.36 (KHTML, like Gecko) Chrome/125.0.0.0 Safari/537.36" etag="Y2C9mIjmJrPgF3orX7yS" version="24.4.8" type="device">
  <diagram name="Page-1" id="c4acf3e9-155e-7222-9cf6-157b1a14988f">
    <mxGraphModel dx="1466" dy="1619" grid="0" gridSize="10" guides="1" tooltips="1" connect="1" arrows="1" fold="1" page="0" pageScale="1" pageWidth="850" pageHeight="1100" background="none" math="0" shadow="0">
      <root>
        <mxCell id="0" />
        <mxCell id="1" parent="0" />
        <mxCell id="Qkeo3jG9VmZgLOpenp9B-1" value="&amp;lt;&amp;lt;Entity&amp;gt;&amp;gt;&lt;br&gt;Клиент" style="swimlane;fontStyle=1;align=center;verticalAlign=top;childLayout=stackLayout;horizontal=1;startSize=40;horizontalStack=0;resizeParent=1;resizeParentMax=0;resizeLast=0;collapsible=1;marginBottom=0;whiteSpace=wrap;html=1;" parent="1" vertex="1">
          <mxGeometry x="310" y="71" width="270" height="178" as="geometry" />
        </mxCell>
        <mxCell id="Qkeo3jG9VmZgLOpenp9B-2" value="+ ФИО: String" style="text;strokeColor=none;fillColor=none;align=left;verticalAlign=top;spacingLeft=4;spacingRight=4;overflow=hidden;rotatable=0;points=[[0,0.5],[1,0.5]];portConstraint=eastwest;whiteSpace=wrap;html=1;" parent="Qkeo3jG9VmZgLOpenp9B-1" vertex="1">
          <mxGeometry y="40" width="270" height="26" as="geometry" />
        </mxCell>
        <mxCell id="Qkeo3jG9VmZgLOpenp9B-3" value="+ заказы: Заказ[...]" style="text;strokeColor=none;fillColor=none;align=left;verticalAlign=top;spacingLeft=4;spacingRight=4;overflow=hidden;rotatable=0;points=[[0,0.5],[1,0.5]];portConstraint=eastwest;whiteSpace=wrap;html=1;" parent="Qkeo3jG9VmZgLOpenp9B-1" vertex="1">
          <mxGeometry y="66" width="270" height="26" as="geometry" />
        </mxCell>
        <mxCell id="Qkeo3jG9VmZgLOpenp9B-4" value="" style="line;strokeWidth=1;fillColor=none;align=left;verticalAlign=middle;spacingTop=-1;spacingLeft=3;spacingRight=3;rotatable=0;labelPosition=right;points=[];portConstraint=eastwest;strokeColor=inherit;" parent="Qkeo3jG9VmZgLOpenp9B-1" vertex="1">
          <mxGeometry y="92" width="270" height="8" as="geometry" />
        </mxCell>
        <mxCell id="Qkeo3jG9VmZgLOpenp9B-5" value="&lt;span style=&quot;text-align: center;&quot;&gt;+ оформить&lt;/span&gt;&lt;span style=&quot;text-align: center; background-color: initial;&quot;&gt;&amp;nbsp;заказ(меню: Меню):&amp;nbsp;&lt;/span&gt;&lt;span style=&quot;text-align: center;&quot;&gt;Заказ&lt;/span&gt;" style="text;strokeColor=none;fillColor=none;align=left;verticalAlign=top;spacingLeft=4;spacingRight=4;overflow=hidden;rotatable=0;points=[[0,0.5],[1,0.5]];portConstraint=eastwest;whiteSpace=wrap;html=1;" parent="Qkeo3jG9VmZgLOpenp9B-1" vertex="1">
          <mxGeometry y="100" width="270" height="26" as="geometry" />
        </mxCell>
        <mxCell id="Qkeo3jG9VmZgLOpenp9B-6" value="&lt;div style=&quot;text-align: center;&quot;&gt;+ получить заказ(заказ: &lt;span style=&quot;background-color: initial;&quot;&gt;Заказ&lt;/span&gt;&lt;span style=&quot;background-color: initial;&quot;&gt;): Boolean&lt;/span&gt;&lt;/div&gt;" style="text;strokeColor=none;fillColor=none;align=left;verticalAlign=top;spacingLeft=4;spacingRight=4;overflow=hidden;rotatable=0;points=[[0,0.5],[1,0.5]];portConstraint=eastwest;whiteSpace=wrap;html=1;" parent="Qkeo3jG9VmZgLOpenp9B-1" vertex="1">
          <mxGeometry y="126" width="270" height="26" as="geometry" />
        </mxCell>
        <mxCell id="Qkeo3jG9VmZgLOpenp9B-8" value="&lt;div style=&quot;text-align: center;&quot;&gt;+ оставить отзыв(состояние заказа: Boolean)&lt;/div&gt;" style="text;strokeColor=none;fillColor=none;align=left;verticalAlign=top;spacingLeft=4;spacingRight=4;overflow=hidden;rotatable=0;points=[[0,0.5],[1,0.5]];portConstraint=eastwest;whiteSpace=wrap;html=1;" parent="Qkeo3jG9VmZgLOpenp9B-1" vertex="1">
          <mxGeometry y="152" width="270" height="26" as="geometry" />
        </mxCell>
        <mxCell id="Qkeo3jG9VmZgLOpenp9B-9" value="&amp;lt;&amp;lt;Entity&amp;gt;&amp;gt;&lt;br&gt;Сотрудник" style="swimlane;fontStyle=1;align=center;verticalAlign=top;childLayout=stackLayout;horizontal=1;startSize=40;horizontalStack=0;resizeParent=1;resizeParentMax=0;resizeLast=0;collapsible=1;marginBottom=0;whiteSpace=wrap;html=1;" parent="1" vertex="1">
          <mxGeometry x="970" y="-540" width="180" height="126" as="geometry" />
        </mxCell>
        <mxCell id="Qkeo3jG9VmZgLOpenp9B-10" value="+ ФИО: String" style="text;strokeColor=none;fillColor=none;align=left;verticalAlign=top;spacingLeft=4;spacingRight=4;overflow=hidden;rotatable=0;points=[[0,0.5],[1,0.5]];portConstraint=eastwest;whiteSpace=wrap;html=1;" parent="Qkeo3jG9VmZgLOpenp9B-9" vertex="1">
          <mxGeometry y="40" width="180" height="26" as="geometry" />
        </mxCell>
        <mxCell id="Qkeo3jG9VmZgLOpenp9B-11" value="+ график работы: Date[...]" style="text;strokeColor=none;fillColor=none;align=left;verticalAlign=top;spacingLeft=4;spacingRight=4;overflow=hidden;rotatable=0;points=[[0,0.5],[1,0.5]];portConstraint=eastwest;whiteSpace=wrap;html=1;" parent="Qkeo3jG9VmZgLOpenp9B-9" vertex="1">
          <mxGeometry y="66" width="180" height="26" as="geometry" />
        </mxCell>
        <mxCell id="Qkeo3jG9VmZgLOpenp9B-12" value="" style="line;strokeWidth=1;fillColor=none;align=left;verticalAlign=middle;spacingTop=-1;spacingLeft=3;spacingRight=3;rotatable=0;labelPosition=right;points=[];portConstraint=eastwest;strokeColor=inherit;" parent="Qkeo3jG9VmZgLOpenp9B-9" vertex="1">
          <mxGeometry y="92" width="180" height="8" as="geometry" />
        </mxCell>
        <mxCell id="Qkeo3jG9VmZgLOpenp9B-14" value="&lt;div style=&quot;text-align: center;&quot;&gt;+ прийти на работу(&lt;span style=&quot;background-color: initial;&quot;&gt;):&amp;nbsp;&lt;/span&gt;&lt;span style=&quot;background-color: initial;&quot;&gt;Boolean&lt;/span&gt;&lt;/div&gt;" style="text;strokeColor=none;fillColor=none;align=left;verticalAlign=top;spacingLeft=4;spacingRight=4;overflow=hidden;rotatable=0;points=[[0,0.5],[1,0.5]];portConstraint=eastwest;whiteSpace=wrap;html=1;" parent="Qkeo3jG9VmZgLOpenp9B-9" vertex="1">
          <mxGeometry y="100" width="180" height="26" as="geometry" />
        </mxCell>
        <mxCell id="Qkeo3jG9VmZgLOpenp9B-17" value="&amp;lt;&amp;lt;Entity&amp;gt;&amp;gt;&lt;br&gt;Менеджер" style="swimlane;fontStyle=1;align=center;verticalAlign=top;childLayout=stackLayout;horizontal=1;startSize=37;horizontalStack=0;resizeParent=1;resizeParentMax=0;resizeLast=0;collapsible=1;marginBottom=0;whiteSpace=wrap;html=1;" parent="1" vertex="1">
          <mxGeometry x="720" y="-353" width="310" height="97" as="geometry" />
        </mxCell>
        <mxCell id="Qkeo3jG9VmZgLOpenp9B-20" value="" style="line;strokeWidth=1;fillColor=none;align=left;verticalAlign=middle;spacingTop=-1;spacingLeft=3;spacingRight=3;rotatable=0;labelPosition=right;points=[];portConstraint=eastwest;strokeColor=inherit;" parent="Qkeo3jG9VmZgLOpenp9B-17" vertex="1">
          <mxGeometry y="37" width="310" height="8" as="geometry" />
        </mxCell>
        <mxCell id="Qkeo3jG9VmZgLOpenp9B-23" value="&lt;div style=&quot;text-align: center;&quot;&gt;+ нанять сотрудника(сотрудник: Сотрудник):&amp;nbsp;&lt;span style=&quot;background-color: initial;&quot;&gt;Boolean&lt;/span&gt;&lt;/div&gt;" style="text;strokeColor=none;fillColor=none;align=left;verticalAlign=top;spacingLeft=4;spacingRight=4;overflow=hidden;rotatable=0;points=[[0,0.5],[1,0.5]];portConstraint=eastwest;whiteSpace=wrap;html=1;" parent="Qkeo3jG9VmZgLOpenp9B-17" vertex="1">
          <mxGeometry y="45" width="310" height="26" as="geometry" />
        </mxCell>
        <mxCell id="Qkeo3jG9VmZgLOpenp9B-61" value="&lt;div style=&quot;text-align: center;&quot;&gt;+ уволить сотрудника(сотрудник: Сотрудник):&amp;nbsp;&lt;span style=&quot;background-color: initial;&quot;&gt;Boolean&lt;/span&gt;&lt;/div&gt;" style="text;strokeColor=none;fillColor=none;align=left;verticalAlign=top;spacingLeft=4;spacingRight=4;overflow=hidden;rotatable=0;points=[[0,0.5],[1,0.5]];portConstraint=eastwest;whiteSpace=wrap;html=1;" parent="Qkeo3jG9VmZgLOpenp9B-17" vertex="1">
          <mxGeometry y="71" width="310" height="26" as="geometry" />
        </mxCell>
        <mxCell id="Qkeo3jG9VmZgLOpenp9B-25" value="&amp;lt;&amp;lt;Entity&amp;gt;&amp;gt;&lt;br&gt;Бариста" style="swimlane;fontStyle=1;align=center;verticalAlign=top;childLayout=stackLayout;horizontal=1;startSize=37;horizontalStack=0;resizeParent=1;resizeParentMax=0;resizeLast=0;collapsible=1;marginBottom=0;whiteSpace=wrap;html=1;" parent="1" vertex="1">
          <mxGeometry x="1115" y="-353" width="230" height="71" as="geometry" />
        </mxCell>
        <mxCell id="Qkeo3jG9VmZgLOpenp9B-28" value="" style="line;strokeWidth=1;fillColor=none;align=left;verticalAlign=middle;spacingTop=-1;spacingLeft=3;spacingRight=3;rotatable=0;labelPosition=right;points=[];portConstraint=eastwest;strokeColor=inherit;" parent="Qkeo3jG9VmZgLOpenp9B-25" vertex="1">
          <mxGeometry y="37" width="230" height="8" as="geometry" />
        </mxCell>
        <mxCell id="Qkeo3jG9VmZgLOpenp9B-33" value="&lt;div style=&quot;text-align: center;&quot;&gt;+ изменить статус заказа(заказ: Заказ)&lt;/div&gt;" style="text;strokeColor=none;fillColor=none;align=left;verticalAlign=top;spacingLeft=4;spacingRight=4;overflow=hidden;rotatable=0;points=[[0,0.5],[1,0.5]];portConstraint=eastwest;whiteSpace=wrap;html=1;" parent="Qkeo3jG9VmZgLOpenp9B-25" vertex="1">
          <mxGeometry y="45" width="230" height="26" as="geometry" />
        </mxCell>
        <mxCell id="Qkeo3jG9VmZgLOpenp9B-35" value="&amp;lt;&amp;lt;Entity&amp;gt;&amp;gt;&lt;br&gt;Заказ" style="swimlane;fontStyle=1;align=center;verticalAlign=top;childLayout=stackLayout;horizontal=1;startSize=40;horizontalStack=0;resizeParent=1;resizeParentMax=0;resizeLast=0;collapsible=1;marginBottom=0;whiteSpace=wrap;html=1;" parent="1" vertex="1">
          <mxGeometry x="490" y="-99" width="140" height="100" as="geometry" />
        </mxCell>
        <mxCell id="Qkeo3jG9VmZgLOpenp9B-36" value="+ номер заказа: Integer" style="text;strokeColor=none;fillColor=none;align=left;verticalAlign=top;spacingLeft=4;spacingRight=4;overflow=hidden;rotatable=0;points=[[0,0.5],[1,0.5]];portConstraint=eastwest;whiteSpace=wrap;html=1;" parent="Qkeo3jG9VmZgLOpenp9B-35" vertex="1">
          <mxGeometry y="40" width="140" height="26" as="geometry" />
        </mxCell>
        <mxCell id="IWbgDmdBeBYtHYO3Ryda-7" value="+ список блюд: Еда[...]" style="text;strokeColor=none;fillColor=none;align=left;verticalAlign=top;spacingLeft=4;spacingRight=4;overflow=hidden;rotatable=0;points=[[0,0.5],[1,0.5]];portConstraint=eastwest;whiteSpace=wrap;html=1;" parent="Qkeo3jG9VmZgLOpenp9B-35" vertex="1">
          <mxGeometry y="66" width="140" height="26" as="geometry" />
        </mxCell>
        <mxCell id="Qkeo3jG9VmZgLOpenp9B-38" value="" style="line;strokeWidth=1;fillColor=none;align=left;verticalAlign=middle;spacingTop=-1;spacingLeft=3;spacingRight=3;rotatable=0;labelPosition=right;points=[];portConstraint=eastwest;strokeColor=inherit;" parent="Qkeo3jG9VmZgLOpenp9B-35" vertex="1">
          <mxGeometry y="92" width="140" height="8" as="geometry" />
        </mxCell>
        <mxCell id="Qkeo3jG9VmZgLOpenp9B-51" value="&amp;lt;&amp;lt;Entity&amp;gt;&amp;gt;&lt;br&gt;Поставка" style="swimlane;fontStyle=1;align=center;verticalAlign=top;childLayout=stackLayout;horizontal=1;startSize=40;horizontalStack=0;resizeParent=1;resizeParentMax=0;resizeLast=0;collapsible=1;marginBottom=0;whiteSpace=wrap;html=1;" parent="1" vertex="1">
          <mxGeometry x="640" y="146" width="140" height="74" as="geometry" />
        </mxCell>
        <mxCell id="IWbgDmdBeBYtHYO3Ryda-8" value="&lt;div style=&quot;text-align: center;&quot;&gt;+ товары: String[...]&lt;/div&gt;" style="text;strokeColor=none;fillColor=none;align=left;verticalAlign=top;spacingLeft=4;spacingRight=4;overflow=hidden;rotatable=0;points=[[0,0.5],[1,0.5]];portConstraint=eastwest;whiteSpace=wrap;html=1;" parent="Qkeo3jG9VmZgLOpenp9B-51" vertex="1">
          <mxGeometry y="40" width="140" height="26" as="geometry" />
        </mxCell>
        <mxCell id="Qkeo3jG9VmZgLOpenp9B-54" value="" style="line;strokeWidth=1;fillColor=none;align=left;verticalAlign=middle;spacingTop=-1;spacingLeft=3;spacingRight=3;rotatable=0;labelPosition=right;points=[];portConstraint=eastwest;strokeColor=inherit;" parent="Qkeo3jG9VmZgLOpenp9B-51" vertex="1">
          <mxGeometry y="66" width="140" height="8" as="geometry" />
        </mxCell>
        <mxCell id="Qkeo3jG9VmZgLOpenp9B-56" value="&amp;lt;&amp;lt;Entity&amp;gt;&amp;gt;&lt;br&gt;Сырье" style="swimlane;fontStyle=1;align=center;verticalAlign=top;childLayout=stackLayout;horizontal=1;startSize=35;horizontalStack=0;resizeParent=1;resizeParentMax=0;resizeLast=0;collapsible=1;marginBottom=0;whiteSpace=wrap;html=1;" parent="1" vertex="1">
          <mxGeometry x="1420" y="-115" width="130" height="69" as="geometry" />
        </mxCell>
        <mxCell id="IWbgDmdBeBYtHYO3Ryda-5" value="&lt;div style=&quot;text-align: center;&quot;&gt;+ продукты: String[...]&lt;/div&gt;" style="text;strokeColor=none;fillColor=none;align=left;verticalAlign=top;spacingLeft=4;spacingRight=4;overflow=hidden;rotatable=0;points=[[0,0.5],[1,0.5]];portConstraint=eastwest;whiteSpace=wrap;html=1;" parent="Qkeo3jG9VmZgLOpenp9B-56" vertex="1">
          <mxGeometry y="35" width="130" height="26" as="geometry" />
        </mxCell>
        <mxCell id="Qkeo3jG9VmZgLOpenp9B-59" value="" style="line;strokeWidth=1;fillColor=none;align=left;verticalAlign=middle;spacingTop=-1;spacingLeft=3;spacingRight=3;rotatable=0;labelPosition=right;points=[];portConstraint=eastwest;strokeColor=inherit;" parent="Qkeo3jG9VmZgLOpenp9B-56" vertex="1">
          <mxGeometry y="61" width="130" height="8" as="geometry" />
        </mxCell>
        <mxCell id="Qkeo3jG9VmZgLOpenp9B-69" value="&amp;lt;&amp;lt;Boundary&amp;gt;&amp;gt;&lt;br&gt;Сервис&amp;nbsp;Менеджера" style="swimlane;fontStyle=1;align=center;verticalAlign=top;childLayout=stackLayout;horizontal=1;startSize=36;horizontalStack=0;resizeParent=1;resizeParentMax=0;resizeLast=0;collapsible=1;marginBottom=0;whiteSpace=wrap;html=1;" parent="1" vertex="1">
          <mxGeometry x="735" y="-206" width="280" height="200" as="geometry" />
        </mxCell>
        <mxCell id="Qkeo3jG9VmZgLOpenp9B-75" value="+ сотрудники: Сотрудник[...]" style="text;strokeColor=none;fillColor=none;align=left;verticalAlign=top;spacingLeft=4;spacingRight=4;overflow=hidden;rotatable=0;points=[[0,0.5],[1,0.5]];portConstraint=eastwest;whiteSpace=wrap;html=1;" parent="Qkeo3jG9VmZgLOpenp9B-69" vertex="1">
          <mxGeometry y="36" width="280" height="26" as="geometry" />
        </mxCell>
        <mxCell id="Qkeo3jG9VmZgLOpenp9B-81" value="+ клиенты: Клиент[...]" style="text;strokeColor=none;fillColor=none;align=left;verticalAlign=top;spacingLeft=4;spacingRight=4;overflow=hidden;rotatable=0;points=[[0,0.5],[1,0.5]];portConstraint=eastwest;whiteSpace=wrap;html=1;" parent="Qkeo3jG9VmZgLOpenp9B-69" vertex="1">
          <mxGeometry y="62" width="280" height="26" as="geometry" />
        </mxCell>
        <mxCell id="Qkeo3jG9VmZgLOpenp9B-70" value="" style="line;strokeWidth=1;fillColor=none;align=left;verticalAlign=middle;spacingTop=-1;spacingLeft=3;spacingRight=3;rotatable=0;labelPosition=right;points=[];portConstraint=eastwest;strokeColor=inherit;" parent="Qkeo3jG9VmZgLOpenp9B-69" vertex="1">
          <mxGeometry y="88" width="280" height="8" as="geometry" />
        </mxCell>
        <mxCell id="Qkeo3jG9VmZgLOpenp9B-71" value="&lt;span style=&quot;text-align: center;&quot;&gt;+ п&lt;/span&gt;&lt;span style=&quot;text-align: center;&quot;&gt;роверить количество сырья&lt;/span&gt;&lt;span style=&quot;text-align: center; background-color: initial;&quot;&gt;():&amp;nbsp;&lt;/span&gt;&lt;span style=&quot;text-align: center;&quot;&gt;Поставка&lt;/span&gt;" style="text;strokeColor=none;fillColor=none;align=left;verticalAlign=top;spacingLeft=4;spacingRight=4;overflow=hidden;rotatable=0;points=[[0,0.5],[1,0.5]];portConstraint=eastwest;whiteSpace=wrap;html=1;" parent="Qkeo3jG9VmZgLOpenp9B-69" vertex="1">
          <mxGeometry y="96" width="280" height="26" as="geometry" />
        </mxCell>
        <mxCell id="Qkeo3jG9VmZgLOpenp9B-85" value="&lt;span style=&quot;text-align: center;&quot;&gt;+ сформировать запрос на поставку&lt;/span&gt;&lt;span style=&quot;text-align: center; background-color: initial;&quot;&gt;():&amp;nbsp;&lt;/span&gt;&lt;span style=&quot;text-align: center;&quot;&gt;Поставка&lt;/span&gt;" style="text;strokeColor=none;fillColor=none;align=left;verticalAlign=top;spacingLeft=4;spacingRight=4;overflow=hidden;rotatable=0;points=[[0,0.5],[1,0.5]];portConstraint=eastwest;whiteSpace=wrap;html=1;" parent="Qkeo3jG9VmZgLOpenp9B-69" vertex="1">
          <mxGeometry y="122" width="280" height="26" as="geometry" />
        </mxCell>
        <mxCell id="Qkeo3jG9VmZgLOpenp9B-74" value="&lt;div style=&quot;text-align: center;&quot;&gt;+ проверить оборудование()&lt;/div&gt;" style="text;strokeColor=none;fillColor=none;align=left;verticalAlign=top;spacingLeft=4;spacingRight=4;overflow=hidden;rotatable=0;points=[[0,0.5],[1,0.5]];portConstraint=eastwest;whiteSpace=wrap;html=1;" parent="Qkeo3jG9VmZgLOpenp9B-69" vertex="1">
          <mxGeometry y="148" width="280" height="26" as="geometry" />
        </mxCell>
        <mxCell id="Qkeo3jG9VmZgLOpenp9B-82" value="&lt;div style=&quot;text-align: center;&quot;&gt;+ собрать статистику по клиентам(): String&lt;/div&gt;" style="text;strokeColor=none;fillColor=none;align=left;verticalAlign=top;spacingLeft=4;spacingRight=4;overflow=hidden;rotatable=0;points=[[0,0.5],[1,0.5]];portConstraint=eastwest;whiteSpace=wrap;html=1;" parent="Qkeo3jG9VmZgLOpenp9B-69" vertex="1">
          <mxGeometry y="174" width="280" height="26" as="geometry" />
        </mxCell>
        <mxCell id="Qkeo3jG9VmZgLOpenp9B-76" value="&amp;lt;&amp;lt;Boundary&amp;gt;&amp;gt;&lt;br&gt;Сервис Баристы" style="swimlane;fontStyle=1;align=center;verticalAlign=top;childLayout=stackLayout;horizontal=1;startSize=34;horizontalStack=0;resizeParent=1;resizeParentMax=0;resizeLast=0;collapsible=1;marginBottom=0;whiteSpace=wrap;html=1;" parent="1" vertex="1">
          <mxGeometry x="1105" y="-154" width="250" height="146" as="geometry" />
        </mxCell>
        <mxCell id="Qkeo3jG9VmZgLOpenp9B-83" value="+ заказы клиентов: Заказ[...]" style="text;strokeColor=none;fillColor=none;align=left;verticalAlign=top;spacingLeft=4;spacingRight=4;overflow=hidden;rotatable=0;points=[[0,0.5],[1,0.5]];portConstraint=eastwest;whiteSpace=wrap;html=1;" parent="Qkeo3jG9VmZgLOpenp9B-76" vertex="1">
          <mxGeometry y="34" width="250" height="26" as="geometry" />
        </mxCell>
        <mxCell id="Qkeo3jG9VmZgLOpenp9B-84" value="+ сырье: Сырье[...]" style="text;strokeColor=none;fillColor=none;align=left;verticalAlign=top;spacingLeft=4;spacingRight=4;overflow=hidden;rotatable=0;points=[[0,0.5],[1,0.5]];portConstraint=eastwest;whiteSpace=wrap;html=1;" parent="Qkeo3jG9VmZgLOpenp9B-76" vertex="1">
          <mxGeometry y="60" width="250" height="26" as="geometry" />
        </mxCell>
        <mxCell id="Qkeo3jG9VmZgLOpenp9B-78" value="" style="line;strokeWidth=1;fillColor=none;align=left;verticalAlign=middle;spacingTop=-1;spacingLeft=3;spacingRight=3;rotatable=0;labelPosition=right;points=[];portConstraint=eastwest;strokeColor=inherit;" parent="Qkeo3jG9VmZgLOpenp9B-76" vertex="1">
          <mxGeometry y="86" width="250" height="8" as="geometry" />
        </mxCell>
        <mxCell id="IWbgDmdBeBYtHYO3Ryda-3" value="&lt;span style=&quot;text-align: center;&quot;&gt;+ п&lt;/span&gt;&lt;span style=&quot;text-align: center;&quot;&gt;ринять заказ&lt;/span&gt;&lt;span style=&quot;text-align: center; background-color: initial;&quot;&gt;(заказ:&amp;nbsp;&lt;/span&gt;&lt;span style=&quot;text-align: center;&quot;&gt;Заказ&lt;/span&gt;&lt;span style=&quot;text-align: center; background-color: initial;&quot;&gt;): Boolean&lt;/span&gt;" style="text;strokeColor=none;fillColor=none;align=left;verticalAlign=top;spacingLeft=4;spacingRight=4;overflow=hidden;rotatable=0;points=[[0,0.5],[1,0.5]];portConstraint=eastwest;whiteSpace=wrap;html=1;" parent="Qkeo3jG9VmZgLOpenp9B-76" vertex="1">
          <mxGeometry y="94" width="250" height="26" as="geometry" />
        </mxCell>
        <mxCell id="Qkeo3jG9VmZgLOpenp9B-30" value="&lt;div style=&quot;text-align: center;&quot;&gt;+ выполнить заказ(сырье: Сырье[...]&lt;span style=&quot;background-color: initial;&quot;&gt;):&amp;nbsp;&lt;/span&gt;&lt;span style=&quot;background-color: initial;&quot;&gt;Еда&lt;/span&gt;&lt;/div&gt;" style="text;strokeColor=none;fillColor=none;align=left;verticalAlign=top;spacingLeft=4;spacingRight=4;overflow=hidden;rotatable=0;points=[[0,0.5],[1,0.5]];portConstraint=eastwest;whiteSpace=wrap;html=1;" parent="Qkeo3jG9VmZgLOpenp9B-76" vertex="1">
          <mxGeometry y="120" width="250" height="26" as="geometry" />
        </mxCell>
        <mxCell id="Qkeo3jG9VmZgLOpenp9B-86" value="&amp;lt;&amp;lt;Entity&amp;gt;&amp;gt;&lt;br&gt;Еда" style="swimlane;fontStyle=1;align=center;verticalAlign=top;childLayout=stackLayout;horizontal=1;startSize=36;horizontalStack=0;resizeParent=1;resizeParentMax=0;resizeLast=0;collapsible=1;marginBottom=0;whiteSpace=wrap;html=1;" parent="1" vertex="1">
          <mxGeometry x="245" y="-169" width="115" height="70" as="geometry" />
        </mxCell>
        <mxCell id="Qkeo3jG9VmZgLOpenp9B-87" value="+ название: String" style="text;strokeColor=none;fillColor=none;align=left;verticalAlign=top;spacingLeft=4;spacingRight=4;overflow=hidden;rotatable=0;points=[[0,0.5],[1,0.5]];portConstraint=eastwest;whiteSpace=wrap;html=1;" parent="Qkeo3jG9VmZgLOpenp9B-86" vertex="1">
          <mxGeometry y="36" width="115" height="26" as="geometry" />
        </mxCell>
        <mxCell id="Qkeo3jG9VmZgLOpenp9B-89" value="" style="line;strokeWidth=1;fillColor=none;align=left;verticalAlign=middle;spacingTop=-1;spacingLeft=3;spacingRight=3;rotatable=0;labelPosition=right;points=[];portConstraint=eastwest;strokeColor=inherit;" parent="Qkeo3jG9VmZgLOpenp9B-86" vertex="1">
          <mxGeometry y="62" width="115" height="8" as="geometry" />
        </mxCell>
        <mxCell id="Qkeo3jG9VmZgLOpenp9B-91" value="&amp;lt;&amp;lt;Entity&amp;gt;&amp;gt;&lt;br&gt;Меню" style="swimlane;fontStyle=1;align=center;verticalAlign=top;childLayout=stackLayout;horizontal=1;startSize=40;horizontalStack=0;resizeParent=1;resizeParentMax=0;resizeLast=0;collapsible=1;marginBottom=0;whiteSpace=wrap;html=1;" parent="1" vertex="1">
          <mxGeometry x="233.75" y="-61" width="137.5" height="74" as="geometry" />
        </mxCell>
        <mxCell id="Qkeo3jG9VmZgLOpenp9B-93" value="+ список еды: Еда[...]" style="text;strokeColor=none;fillColor=none;align=left;verticalAlign=top;spacingLeft=4;spacingRight=4;overflow=hidden;rotatable=0;points=[[0,0.5],[1,0.5]];portConstraint=eastwest;whiteSpace=wrap;html=1;" parent="Qkeo3jG9VmZgLOpenp9B-91" vertex="1">
          <mxGeometry y="40" width="137.5" height="26" as="geometry" />
        </mxCell>
        <mxCell id="Qkeo3jG9VmZgLOpenp9B-94" value="" style="line;strokeWidth=1;fillColor=none;align=left;verticalAlign=middle;spacingTop=-1;spacingLeft=3;spacingRight=3;rotatable=0;labelPosition=right;points=[];portConstraint=eastwest;strokeColor=inherit;" parent="Qkeo3jG9VmZgLOpenp9B-91" vertex="1">
          <mxGeometry y="66" width="137.5" height="8" as="geometry" />
        </mxCell>
        <mxCell id="Qkeo3jG9VmZgLOpenp9B-96" value="&amp;lt;&amp;lt;Entity&amp;gt;&amp;gt;&lt;br&gt;Поставщик" style="swimlane;fontStyle=1;align=center;verticalAlign=top;childLayout=stackLayout;horizontal=1;startSize=40;horizontalStack=0;resizeParent=1;resizeParentMax=0;resizeLast=0;collapsible=1;marginBottom=0;whiteSpace=wrap;html=1;" parent="1" vertex="1">
          <mxGeometry x="830" y="146" width="170" height="74" as="geometry" />
        </mxCell>
        <mxCell id="Qkeo3jG9VmZgLOpenp9B-97" value="+ название компании: String" style="text;strokeColor=none;fillColor=none;align=left;verticalAlign=top;spacingLeft=4;spacingRight=4;overflow=hidden;rotatable=0;points=[[0,0.5],[1,0.5]];portConstraint=eastwest;whiteSpace=wrap;html=1;" parent="Qkeo3jG9VmZgLOpenp9B-96" vertex="1">
          <mxGeometry y="40" width="170" height="26" as="geometry" />
        </mxCell>
        <mxCell id="Qkeo3jG9VmZgLOpenp9B-99" value="" style="line;strokeWidth=1;fillColor=none;align=left;verticalAlign=middle;spacingTop=-1;spacingLeft=3;spacingRight=3;rotatable=0;labelPosition=right;points=[];portConstraint=eastwest;strokeColor=inherit;" parent="Qkeo3jG9VmZgLOpenp9B-96" vertex="1">
          <mxGeometry y="66" width="170" height="8" as="geometry" />
        </mxCell>
        <mxCell id="IWbgDmdBeBYtHYO3Ryda-1" value="" style="endArrow=block;endSize=16;endFill=0;html=1;rounded=0;entryX=0.661;entryY=1.115;entryDx=0;entryDy=0;entryPerimeter=0;exitX=0.5;exitY=0;exitDx=0;exitDy=0;" parent="1" source="Qkeo3jG9VmZgLOpenp9B-25" target="Qkeo3jG9VmZgLOpenp9B-14" edge="1">
          <mxGeometry width="160" relative="1" as="geometry">
            <mxPoint x="1634" y="4" as="sourcePoint" />
            <mxPoint x="1451" y="-95" as="targetPoint" />
          </mxGeometry>
        </mxCell>
        <mxCell id="IWbgDmdBeBYtHYO3Ryda-2" value="" style="endArrow=block;endSize=16;endFill=0;html=1;rounded=0;entryX=0.378;entryY=1.192;entryDx=0;entryDy=0;entryPerimeter=0;exitX=0.477;exitY=-0.023;exitDx=0;exitDy=0;exitPerimeter=0;" parent="1" source="Qkeo3jG9VmZgLOpenp9B-17" target="Qkeo3jG9VmZgLOpenp9B-14" edge="1">
          <mxGeometry width="160" relative="1" as="geometry">
            <mxPoint x="1250" y="-330" as="sourcePoint" />
            <mxPoint x="1114" y="-365" as="targetPoint" />
          </mxGeometry>
        </mxCell>
        <mxCell id="IWbgDmdBeBYtHYO3Ryda-9" value="&amp;lt;&amp;lt;Boundary&amp;gt;&amp;gt;&lt;br&gt;Сервис&amp;nbsp;Поставщика" style="swimlane;fontStyle=1;align=center;verticalAlign=top;childLayout=stackLayout;horizontal=1;startSize=40;horizontalStack=0;resizeParent=1;resizeParentMax=0;resizeLast=0;collapsible=1;marginBottom=0;whiteSpace=wrap;html=1;" parent="1" vertex="1">
          <mxGeometry x="755" y="270" width="350" height="126" as="geometry" />
        </mxCell>
        <mxCell id="ZJRuLnJXH88VPLt5yp65-8" value="&lt;div style=&quot;text-align: center;&quot;&gt;+ поставки:&amp;nbsp;Поставка[...]&lt;/div&gt;" style="text;strokeColor=none;fillColor=none;align=left;verticalAlign=top;spacingLeft=4;spacingRight=4;overflow=hidden;rotatable=0;points=[[0,0.5],[1,0.5]];portConstraint=eastwest;whiteSpace=wrap;html=1;" parent="IWbgDmdBeBYtHYO3Ryda-9" vertex="1">
          <mxGeometry y="40" width="350" height="26" as="geometry" />
        </mxCell>
        <mxCell id="IWbgDmdBeBYtHYO3Ryda-11" value="" style="line;strokeWidth=1;fillColor=none;align=left;verticalAlign=middle;spacingTop=-1;spacingLeft=3;spacingRight=3;rotatable=0;labelPosition=right;points=[];portConstraint=eastwest;strokeColor=inherit;" parent="IWbgDmdBeBYtHYO3Ryda-9" vertex="1">
          <mxGeometry y="66" width="350" height="8" as="geometry" />
        </mxCell>
        <mxCell id="IWbgDmdBeBYtHYO3Ryda-12" value="&lt;div style=&quot;text-align: center;&quot;&gt;+ принять запрос на поставку(поставка:&amp;nbsp;&lt;span style=&quot;background-color: initial;&quot;&gt;Поставка&lt;/span&gt;&lt;span style=&quot;background-color: initial;&quot;&gt;):&amp;nbsp;&lt;/span&gt;&lt;span style=&quot;background-color: initial;&quot;&gt;Boolean&lt;/span&gt;&lt;/div&gt;" style="text;strokeColor=none;fillColor=none;align=left;verticalAlign=top;spacingLeft=4;spacingRight=4;overflow=hidden;rotatable=0;points=[[0,0.5],[1,0.5]];portConstraint=eastwest;whiteSpace=wrap;html=1;" parent="IWbgDmdBeBYtHYO3Ryda-9" vertex="1">
          <mxGeometry y="74" width="350" height="26" as="geometry" />
        </mxCell>
        <mxCell id="IWbgDmdBeBYtHYO3Ryda-13" value="&lt;div style=&quot;text-align: center;&quot;&gt;+ отправить поставку(&lt;span style=&quot;background-color: initial;&quot;&gt;):&amp;nbsp;&lt;/span&gt;&lt;span style=&quot;background-color: initial;&quot;&gt;Поставка&lt;/span&gt;&lt;/div&gt;" style="text;strokeColor=none;fillColor=none;align=left;verticalAlign=top;spacingLeft=4;spacingRight=4;overflow=hidden;rotatable=0;points=[[0,0.5],[1,0.5]];portConstraint=eastwest;whiteSpace=wrap;html=1;" parent="IWbgDmdBeBYtHYO3Ryda-9" vertex="1">
          <mxGeometry y="100" width="350" height="26" as="geometry" />
        </mxCell>
        <mxCell id="IWbgDmdBeBYtHYO3Ryda-14" value="" style="endArrow=blockThin;endSize=12;dashed=1;html=1;rounded=0;endFill=1;entryX=0.5;entryY=0;entryDx=0;entryDy=0;exitX=0.496;exitY=1.038;exitDx=0;exitDy=0;exitPerimeter=0;" parent="1" source="Qkeo3jG9VmZgLOpenp9B-33" target="Qkeo3jG9VmZgLOpenp9B-76" edge="1">
          <mxGeometry width="160" relative="1" as="geometry">
            <mxPoint x="1305" y="-490" as="sourcePoint" />
            <mxPoint x="1465" y="-490" as="targetPoint" />
          </mxGeometry>
        </mxCell>
        <mxCell id="IWbgDmdBeBYtHYO3Ryda-15" value="" style="endArrow=blockThin;endSize=12;dashed=1;html=1;rounded=0;endFill=1;entryX=0.5;entryY=0;entryDx=0;entryDy=0;exitX=0.497;exitY=0.989;exitDx=0;exitDy=0;exitPerimeter=0;" parent="1" source="Qkeo3jG9VmZgLOpenp9B-61" target="Qkeo3jG9VmZgLOpenp9B-69" edge="1">
          <mxGeometry width="160" relative="1" as="geometry">
            <mxPoint x="875" y="-240" as="sourcePoint" />
            <mxPoint x="1250" y="-170" as="targetPoint" />
          </mxGeometry>
        </mxCell>
        <mxCell id="IWbgDmdBeBYtHYO3Ryda-16" value="&amp;lt;&amp;lt;Control&amp;gt;&amp;gt;&lt;br&gt;Контроллер Кофейни" style="swimlane;fontStyle=1;align=center;verticalAlign=top;childLayout=stackLayout;horizontal=1;startSize=40;horizontalStack=0;resizeParent=1;resizeParentMax=0;resizeLast=0;collapsible=1;marginBottom=0;whiteSpace=wrap;html=1;" parent="1" vertex="1">
          <mxGeometry x="980" y="50" width="175" height="48" as="geometry" />
        </mxCell>
        <mxCell id="IWbgDmdBeBYtHYO3Ryda-18" value="" style="line;strokeWidth=1;fillColor=none;align=left;verticalAlign=middle;spacingTop=-1;spacingLeft=3;spacingRight=3;rotatable=0;labelPosition=right;points=[];portConstraint=eastwest;strokeColor=inherit;" parent="IWbgDmdBeBYtHYO3Ryda-16" vertex="1">
          <mxGeometry y="40" width="175" height="8" as="geometry" />
        </mxCell>
        <mxCell id="IWbgDmdBeBYtHYO3Ryda-22" value="" style="endArrow=blockThin;endSize=12;dashed=1;html=1;rounded=0;endFill=1;entryX=0.456;entryY=0.02;entryDx=0;entryDy=0;exitX=0.5;exitY=1;exitDx=0;exitDy=0;entryPerimeter=0;" parent="1" source="Qkeo3jG9VmZgLOpenp9B-96" target="IWbgDmdBeBYtHYO3Ryda-9" edge="1">
          <mxGeometry width="160" relative="1" as="geometry">
            <mxPoint x="489" y="-45" as="sourcePoint" />
            <mxPoint x="500" y="15" as="targetPoint" />
          </mxGeometry>
        </mxCell>
        <mxCell id="IWbgDmdBeBYtHYO3Ryda-23" value="" style="endArrow=classic;endSize=12;dashed=1;html=1;rounded=0;endFill=1;exitX=0.25;exitY=0;exitDx=0;exitDy=0;entryX=0.5;entryY=1;entryDx=0;entryDy=0;" parent="1" source="Qkeo3jG9VmZgLOpenp9B-1" target="Qkeo3jG9VmZgLOpenp9B-91" edge="1">
          <mxGeometry width="160" relative="1" as="geometry">
            <mxPoint x="860" y="41" as="sourcePoint" />
            <mxPoint x="1030" y="-79" as="targetPoint" />
            <mxPoint as="offset" />
          </mxGeometry>
        </mxCell>
        <mxCell id="IWbgDmdBeBYtHYO3Ryda-43" value="Use" style="edgeLabel;html=1;align=center;verticalAlign=middle;resizable=0;points=[];" parent="IWbgDmdBeBYtHYO3Ryda-23" vertex="1" connectable="0">
          <mxGeometry x="-0.0245" relative="1" as="geometry">
            <mxPoint x="9" y="-6" as="offset" />
          </mxGeometry>
        </mxCell>
        <mxCell id="IWbgDmdBeBYtHYO3Ryda-24" value="" style="endArrow=classic;endSize=12;dashed=1;html=1;rounded=0;endFill=1;exitX=0.75;exitY=0;exitDx=0;exitDy=0;entryX=0.5;entryY=1;entryDx=0;entryDy=0;" parent="1" source="Qkeo3jG9VmZgLOpenp9B-1" target="Qkeo3jG9VmZgLOpenp9B-35" edge="1">
          <mxGeometry width="160" relative="1" as="geometry">
            <mxPoint x="395" y="81" as="sourcePoint" />
            <mxPoint x="345" y="-119" as="targetPoint" />
            <mxPoint as="offset" />
          </mxGeometry>
        </mxCell>
        <mxCell id="IWbgDmdBeBYtHYO3Ryda-44" value="Use" style="edgeLabel;html=1;align=center;verticalAlign=middle;resizable=0;points=[];" parent="IWbgDmdBeBYtHYO3Ryda-24" vertex="1" connectable="0">
          <mxGeometry x="-0.1537" y="2" relative="1" as="geometry">
            <mxPoint x="-12" y="-9" as="offset" />
          </mxGeometry>
        </mxCell>
        <mxCell id="IWbgDmdBeBYtHYO3Ryda-25" value="" style="endArrow=none;endSize=16;endFill=0;html=1;rounded=0;entryX=0.372;entryY=1;entryDx=0;entryDy=0;entryPerimeter=0;exitX=0.75;exitY=0;exitDx=0;exitDy=0;" parent="1" source="IWbgDmdBeBYtHYO3Ryda-16" target="Qkeo3jG9VmZgLOpenp9B-30" edge="1">
          <mxGeometry width="160" relative="1" as="geometry">
            <mxPoint x="1240" y="148" as="sourcePoint" />
            <mxPoint x="1104" y="110" as="targetPoint" />
          </mxGeometry>
        </mxCell>
        <mxCell id="IWbgDmdBeBYtHYO3Ryda-26" value="" style="endArrow=none;endSize=16;endFill=0;html=1;rounded=0;entryX=0.661;entryY=1.077;entryDx=0;entryDy=0;entryPerimeter=0;exitX=0.25;exitY=0;exitDx=0;exitDy=0;" parent="1" source="IWbgDmdBeBYtHYO3Ryda-16" target="Qkeo3jG9VmZgLOpenp9B-82" edge="1">
          <mxGeometry width="160" relative="1" as="geometry">
            <mxPoint x="1116" y="170" as="sourcePoint" />
            <mxPoint x="1235" y="-1" as="targetPoint" />
          </mxGeometry>
        </mxCell>
        <mxCell id="IWbgDmdBeBYtHYO3Ryda-27" value="" style="endArrow=none;endSize=16;endFill=0;html=1;rounded=0;entryX=1;entryY=0.078;entryDx=0;entryDy=0;exitX=0;exitY=0.75;exitDx=0;exitDy=0;entryPerimeter=0;" parent="1" source="IWbgDmdBeBYtHYO3Ryda-16" target="Qkeo3jG9VmZgLOpenp9B-1" edge="1">
          <mxGeometry width="160" relative="1" as="geometry">
            <mxPoint x="1034" y="60" as="sourcePoint" />
            <mxPoint x="930" y="-4" as="targetPoint" />
          </mxGeometry>
        </mxCell>
        <mxCell id="IWbgDmdBeBYtHYO3Ryda-30" value="" style="endArrow=classic;endSize=12;dashed=1;html=1;rounded=0;endFill=1;entryX=0.5;entryY=0;entryDx=0;entryDy=0;exitX=0.509;exitY=1.022;exitDx=0;exitDy=0;exitPerimeter=0;" parent="1" source="Qkeo3jG9VmZgLOpenp9B-82" target="Qkeo3jG9VmZgLOpenp9B-96" edge="1">
          <mxGeometry width="160" relative="1" as="geometry">
            <mxPoint x="670" y="-140" as="sourcePoint" />
            <mxPoint x="590" y="30" as="targetPoint" />
            <mxPoint as="offset" />
          </mxGeometry>
        </mxCell>
        <mxCell id="IWbgDmdBeBYtHYO3Ryda-36" value="&lt;span style=&quot;color: rgba(0, 0, 0, 0); font-family: monospace; font-size: 0px; text-align: start; background-color: rgb(251, 251, 251);&quot;&gt;%3CmxGraphModel%3E%3Croot%3E%3CmxCell%20id%3D%220%22%2F%3E%3CmxCell%20id%3D%221%22%20parent%3D%220%22%2F%3E%3CmxCell%20id%3D%222%22%20value%3D%22%22%20style%3D%22endArrow%3Dclassic%3BendSize%3D12%3Bdashed%3D1%3Bhtml%3D1%3Brounded%3D0%3BendFill%3D1%3BexitX%3D0%3BexitY%3D0.5%3BexitDx%3D0%3BexitDy%3D0%3BentryX%3D1%3BentryY%3D0.5%3BentryDx%3D0%3BentryDy%3D0%3B%22%20edge%3D%221%22%20parent%3D%221%22%3E%3CmxGeometry%20width%3D%22160%22%20relative%3D%221%22%20as%3D%22geometry%22%3E%3CmxPoint%20x%3D%22450%22%20y%3D%22-202%22%20as%3D%22sourcePoint%22%2F%3E%3CmxPoint%20x%3D%22410%22%20y%3D%22-202%22%20as%3D%22targetPoint%22%2F%3E%3CmxPoint%20as%3D%22offset%22%2F%3E%3C%2FmxGeometry%3E%3C%2FmxCell%3E%3CmxCell%20id%3D%223%22%20value%3D%22Use%22%20style%3D%22edgeLabel%3Bhtml%3D1%3Balign%3Dcenter%3BverticalAlign%3Dmiddle%3Bresizable%3D0%3Bpoints%3D%5B%5D%3B%22%20vertex%3D%221%22%20connectable%3D%220%22%20parent%3D%222%22%3E%3CmxGeometry%20x%3D%22-0.05%22%20y%3D%22-2%22%20relative%3D%221%22%20as%3D%22geometry%22%3E%3CmxPoint%20as%3D%22offset%22%2F%3E%3C%2FmxGeometry%3E%3C%2FmxCell%3E%3C%2Froot%3E%3C%2FmxGraphModel%3E&lt;/span&gt;" style="edgeLabel;html=1;align=center;verticalAlign=middle;resizable=0;points=[];" parent="IWbgDmdBeBYtHYO3Ryda-30" vertex="1" connectable="0">
          <mxGeometry x="-0.0215" y="-1" relative="1" as="geometry">
            <mxPoint as="offset" />
          </mxGeometry>
        </mxCell>
        <mxCell id="IWbgDmdBeBYtHYO3Ryda-41" value="Use" style="edgeLabel;html=1;align=center;verticalAlign=middle;resizable=0;points=[];" parent="IWbgDmdBeBYtHYO3Ryda-30" vertex="1" connectable="0">
          <mxGeometry x="-0.2992" y="2" relative="1" as="geometry">
            <mxPoint x="-19" y="3" as="offset" />
          </mxGeometry>
        </mxCell>
        <mxCell id="IWbgDmdBeBYtHYO3Ryda-31" value="" style="endArrow=classic;endSize=12;dashed=1;html=1;rounded=0;endFill=1;exitX=0;exitY=0.5;exitDx=0;exitDy=0;entryX=1;entryY=0.5;entryDx=0;entryDy=0;" parent="1" source="Qkeo3jG9VmZgLOpenp9B-97" target="IWbgDmdBeBYtHYO3Ryda-8" edge="1">
          <mxGeometry width="160" relative="1" as="geometry">
            <mxPoint x="1015" y="209" as="sourcePoint" />
            <mxPoint x="1140" y="244" as="targetPoint" />
            <mxPoint as="offset" />
          </mxGeometry>
        </mxCell>
        <mxCell id="IWbgDmdBeBYtHYO3Ryda-33" value="Use" style="edgeLabel;html=1;align=center;verticalAlign=middle;resizable=0;points=[];" parent="IWbgDmdBeBYtHYO3Ryda-31" vertex="1" connectable="0">
          <mxGeometry x="-0.05" y="-2" relative="1" as="geometry">
            <mxPoint y="-11" as="offset" />
          </mxGeometry>
        </mxCell>
        <mxCell id="IWbgDmdBeBYtHYO3Ryda-32" value="" style="endArrow=classic;endSize=12;dashed=1;html=1;rounded=0;endFill=1;exitX=0.5;exitY=0;exitDx=0;exitDy=0;entryX=0.5;entryY=1;entryDx=0;entryDy=0;" parent="1" source="Qkeo3jG9VmZgLOpenp9B-91" target="Qkeo3jG9VmZgLOpenp9B-86" edge="1">
          <mxGeometry width="160" relative="1" as="geometry">
            <mxPoint x="460" y="-211" as="sourcePoint" />
            <mxPoint x="420" y="-211" as="targetPoint" />
            <mxPoint as="offset" />
          </mxGeometry>
        </mxCell>
        <mxCell id="IWbgDmdBeBYtHYO3Ryda-42" value="Use" style="edgeLabel;html=1;align=center;verticalAlign=middle;resizable=0;points=[];" parent="IWbgDmdBeBYtHYO3Ryda-32" vertex="1" connectable="0">
          <mxGeometry x="0.5018" y="-1" relative="1" as="geometry">
            <mxPoint x="14" y="10" as="offset" />
          </mxGeometry>
        </mxCell>
        <mxCell id="IWbgDmdBeBYtHYO3Ryda-45" value="" style="endArrow=classic;endSize=12;dashed=1;html=1;rounded=0;endFill=1;exitX=0.25;exitY=0;exitDx=0;exitDy=0;entryX=1;entryY=0.25;entryDx=0;entryDy=0;" parent="1" source="Qkeo3jG9VmZgLOpenp9B-35" target="Qkeo3jG9VmZgLOpenp9B-86" edge="1">
          <mxGeometry width="160" relative="1" as="geometry">
            <mxPoint x="345" y="-49" as="sourcePoint" />
            <mxPoint x="345" y="-75" as="targetPoint" />
            <mxPoint as="offset" />
          </mxGeometry>
        </mxCell>
        <mxCell id="IWbgDmdBeBYtHYO3Ryda-46" value="Use" style="edgeLabel;html=1;align=center;verticalAlign=middle;resizable=0;points=[];" parent="IWbgDmdBeBYtHYO3Ryda-45" vertex="1" connectable="0">
          <mxGeometry x="0.5018" y="-1" relative="1" as="geometry">
            <mxPoint x="39" y="25" as="offset" />
          </mxGeometry>
        </mxCell>
        <mxCell id="IWbgDmdBeBYtHYO3Ryda-47" value="" style="endArrow=classic;endSize=12;dashed=1;html=1;rounded=0;endFill=1;exitX=1;exitY=0.5;exitDx=0;exitDy=0;entryX=0;entryY=0.5;entryDx=0;entryDy=0;" parent="1" source="Qkeo3jG9VmZgLOpenp9B-76" target="Qkeo3jG9VmZgLOpenp9B-56" edge="1">
          <mxGeometry width="160" relative="1" as="geometry">
            <mxPoint x="630" y="-192" as="sourcePoint" />
            <mxPoint x="1400" y="-120" as="targetPoint" />
            <mxPoint as="offset" />
          </mxGeometry>
        </mxCell>
        <mxCell id="IWbgDmdBeBYtHYO3Ryda-48" value="&lt;span style=&quot;color: rgba(0, 0, 0, 0); font-family: monospace; font-size: 0px; text-align: start; background-color: rgb(251, 251, 251);&quot;&gt;%3CmxGraphModel%3E%3Croot%3E%3CmxCell%20id%3D%220%22%2F%3E%3CmxCell%20id%3D%221%22%20parent%3D%220%22%2F%3E%3CmxCell%20id%3D%222%22%20value%3D%22%22%20style%3D%22endArrow%3Dclassic%3BendSize%3D12%3Bdashed%3D1%3Bhtml%3D1%3Brounded%3D0%3BendFill%3D1%3BexitX%3D0%3BexitY%3D0.5%3BexitDx%3D0%3BexitDy%3D0%3BentryX%3D1%3BentryY%3D0.5%3BentryDx%3D0%3BentryDy%3D0%3B%22%20edge%3D%221%22%20parent%3D%221%22%3E%3CmxGeometry%20width%3D%22160%22%20relative%3D%221%22%20as%3D%22geometry%22%3E%3CmxPoint%20x%3D%22450%22%20y%3D%22-202%22%20as%3D%22sourcePoint%22%2F%3E%3CmxPoint%20x%3D%22410%22%20y%3D%22-202%22%20as%3D%22targetPoint%22%2F%3E%3CmxPoint%20as%3D%22offset%22%2F%3E%3C%2FmxGeometry%3E%3C%2FmxCell%3E%3CmxCell%20id%3D%223%22%20value%3D%22Use%22%20style%3D%22edgeLabel%3Bhtml%3D1%3Balign%3Dcenter%3BverticalAlign%3Dmiddle%3Bresizable%3D0%3Bpoints%3D%5B%5D%3B%22%20vertex%3D%221%22%20connectable%3D%220%22%20parent%3D%222%22%3E%3CmxGeometry%20x%3D%22-0.05%22%20y%3D%22-2%22%20relative%3D%221%22%20as%3D%22geometry%22%3E%3CmxPoint%20as%3D%22offset%22%2F%3E%3C%2FmxGeometry%3E%3C%2FmxCell%3E%3C%2Froot%3E%3C%2FmxGraphModel%3E&lt;/span&gt;" style="edgeLabel;html=1;align=center;verticalAlign=middle;resizable=0;points=[];" parent="IWbgDmdBeBYtHYO3Ryda-47" vertex="1" connectable="0">
          <mxGeometry x="-0.0215" y="-1" relative="1" as="geometry">
            <mxPoint as="offset" />
          </mxGeometry>
        </mxCell>
        <mxCell id="IWbgDmdBeBYtHYO3Ryda-49" value="Use" style="edgeLabel;html=1;align=center;verticalAlign=middle;resizable=0;points=[];" parent="IWbgDmdBeBYtHYO3Ryda-47" vertex="1" connectable="0">
          <mxGeometry x="-0.2992" y="2" relative="1" as="geometry">
            <mxPoint y="-7" as="offset" />
          </mxGeometry>
        </mxCell>
        <mxCell id="IWbgDmdBeBYtHYO3Ryda-50" value="" style="endArrow=none;endSize=16;endFill=0;html=1;rounded=0;exitX=0.5;exitY=1;exitDx=0;exitDy=0;" parent="1" source="IWbgDmdBeBYtHYO3Ryda-16" edge="1">
          <mxGeometry width="160" relative="1" as="geometry">
            <mxPoint x="990" y="86" as="sourcePoint" />
            <mxPoint x="1020" y="270" as="targetPoint" />
          </mxGeometry>
        </mxCell>
        <mxCell id="ZJRuLnJXH88VPLt5yp65-1" value="1" style="text;html=1;align=center;verticalAlign=middle;resizable=0;points=[];autosize=1;strokeColor=none;fillColor=none;" parent="1" vertex="1">
          <mxGeometry x="1060" y="90" width="30" height="30" as="geometry" />
        </mxCell>
        <mxCell id="ZJRuLnJXH88VPLt5yp65-2" value="1..*" style="text;html=1;align=center;verticalAlign=middle;resizable=0;points=[];autosize=1;strokeColor=none;fillColor=none;" parent="1" vertex="1">
          <mxGeometry x="1020" y="245" width="40" height="30" as="geometry" />
        </mxCell>
        <mxCell id="ZJRuLnJXH88VPLt5yp65-3" value="1" style="text;html=1;align=center;verticalAlign=middle;resizable=0;points=[];autosize=1;strokeColor=none;fillColor=none;" parent="1" vertex="1">
          <mxGeometry x="810" y="150" width="30" height="30" as="geometry" />
        </mxCell>
        <mxCell id="ZJRuLnJXH88VPLt5yp65-4" value="0..*" style="text;html=1;align=center;verticalAlign=middle;resizable=0;points=[];autosize=1;strokeColor=none;fillColor=none;" parent="1" vertex="1">
          <mxGeometry x="770" y="150" width="40" height="30" as="geometry" />
        </mxCell>
        <mxCell id="ZJRuLnJXH88VPLt5yp65-5" value="1" style="text;html=1;align=center;verticalAlign=middle;resizable=0;points=[];autosize=1;strokeColor=none;fillColor=none;" parent="1" vertex="1">
          <mxGeometry x="850" y="-8" width="30" height="30" as="geometry" />
        </mxCell>
        <mxCell id="ZJRuLnJXH88VPLt5yp65-6" value="1" style="text;html=1;align=center;verticalAlign=middle;resizable=0;points=[];autosize=1;strokeColor=none;fillColor=none;" parent="1" vertex="1">
          <mxGeometry x="915" y="215" width="30" height="30" as="geometry" />
        </mxCell>
        <mxCell id="ZJRuLnJXH88VPLt5yp65-7" value="1" style="text;html=1;align=center;verticalAlign=middle;resizable=0;points=[];autosize=1;strokeColor=none;fillColor=none;" parent="1" vertex="1">
          <mxGeometry x="915" y="245" width="30" height="30" as="geometry" />
        </mxCell>
        <mxCell id="ZJRuLnJXH88VPLt5yp65-9" value="1..*" style="text;html=1;align=center;verticalAlign=middle;resizable=0;points=[];autosize=1;strokeColor=none;fillColor=none;" parent="1" vertex="1">
          <mxGeometry x="870" y="120" width="40" height="30" as="geometry" />
        </mxCell>
        <mxCell id="ZJRuLnJXH88VPLt5yp65-11" value="1" style="text;html=1;align=center;verticalAlign=middle;resizable=0;points=[];autosize=1;strokeColor=none;fillColor=none;" parent="1" vertex="1">
          <mxGeometry x="950" y="60" width="30" height="30" as="geometry" />
        </mxCell>
        <mxCell id="ZJRuLnJXH88VPLt5yp65-12" value="1..*" style="text;html=1;align=center;verticalAlign=middle;resizable=0;points=[];autosize=1;strokeColor=none;fillColor=none;" parent="1" vertex="1">
          <mxGeometry x="570" y="60" width="40" height="30" as="geometry" />
        </mxCell>
        <mxCell id="ZJRuLnJXH88VPLt5yp65-13" value="1" style="text;html=1;align=center;verticalAlign=middle;resizable=0;points=[];autosize=1;strokeColor=none;fillColor=none;" parent="1" vertex="1">
          <mxGeometry x="1020" y="22" width="30" height="30" as="geometry" />
        </mxCell>
        <mxCell id="ZJRuLnJXH88VPLt5yp65-14" value="1" style="text;html=1;align=center;verticalAlign=middle;resizable=0;points=[];autosize=1;strokeColor=none;fillColor=none;" parent="1" vertex="1">
          <mxGeometry x="1085" y="22" width="30" height="30" as="geometry" />
        </mxCell>
        <mxCell id="ZJRuLnJXH88VPLt5yp65-15" value="1..*" style="text;html=1;align=center;verticalAlign=middle;resizable=0;points=[];autosize=1;strokeColor=none;fillColor=none;" parent="1" vertex="1">
          <mxGeometry x="945" y="-6" width="40" height="30" as="geometry" />
        </mxCell>
        <mxCell id="ZJRuLnJXH88VPLt5yp65-16" value="1..*" style="text;html=1;align=center;verticalAlign=middle;resizable=0;points=[];autosize=1;strokeColor=none;fillColor=none;" parent="1" vertex="1">
          <mxGeometry x="1185" y="-8" width="40" height="30" as="geometry" />
        </mxCell>
        <mxCell id="ZJRuLnJXH88VPLt5yp65-17" value="0..*" style="text;html=1;align=center;verticalAlign=middle;resizable=0;points=[];autosize=1;strokeColor=none;fillColor=none;" parent="1" vertex="1">
          <mxGeometry x="1390" y="-121" width="40" height="30" as="geometry" />
        </mxCell>
        <mxCell id="ZJRuLnJXH88VPLt5yp65-18" value="1" style="text;html=1;align=center;verticalAlign=middle;resizable=0;points=[];autosize=1;strokeColor=none;fillColor=none;" parent="1" vertex="1">
          <mxGeometry x="1345" y="-121" width="30" height="30" as="geometry" />
        </mxCell>
        <mxCell id="ZJRuLnJXH88VPLt5yp65-19" value="1" style="text;html=1;align=center;verticalAlign=middle;resizable=0;points=[];autosize=1;strokeColor=none;fillColor=none;" parent="1" vertex="1">
          <mxGeometry x="880" y="-260" width="30" height="30" as="geometry" />
        </mxCell>
        <mxCell id="ZJRuLnJXH88VPLt5yp65-20" value="1" style="text;html=1;align=center;verticalAlign=middle;resizable=0;points=[];autosize=1;strokeColor=none;fillColor=none;" parent="1" vertex="1">
          <mxGeometry x="1375" y="-101" width="30" height="30" as="geometry" />
        </mxCell>
        <mxCell id="ZJRuLnJXH88VPLt5yp65-21" value="1" style="text;html=1;align=center;verticalAlign=middle;resizable=0;points=[];autosize=1;strokeColor=none;fillColor=none;" parent="1" vertex="1">
          <mxGeometry x="880" y="-230" width="30" height="30" as="geometry" />
        </mxCell>
        <mxCell id="ZJRuLnJXH88VPLt5yp65-22" value="1" style="text;html=1;align=center;verticalAlign=middle;resizable=0;points=[];autosize=1;strokeColor=none;fillColor=none;" parent="1" vertex="1">
          <mxGeometry x="1230" y="-286" width="30" height="30" as="geometry" />
        </mxCell>
        <mxCell id="ZJRuLnJXH88VPLt5yp65-23" value="1" style="text;html=1;align=center;verticalAlign=middle;resizable=0;points=[];autosize=1;strokeColor=none;fillColor=none;" parent="1" vertex="1">
          <mxGeometry x="1230" y="-184" width="30" height="30" as="geometry" />
        </mxCell>
        <mxCell id="ZJRuLnJXH88VPLt5yp65-25" value="1" style="text;html=1;align=center;verticalAlign=middle;resizable=0;points=[];autosize=1;strokeColor=none;fillColor=none;" parent="1" vertex="1">
          <mxGeometry x="510" y="50" width="30" height="30" as="geometry" />
        </mxCell>
        <mxCell id="ZJRuLnJXH88VPLt5yp65-26" value="0..*" style="text;html=1;align=center;verticalAlign=middle;resizable=0;points=[];autosize=1;strokeColor=none;fillColor=none;" parent="1" vertex="1">
          <mxGeometry x="550" y="1" width="40" height="30" as="geometry" />
        </mxCell>
        <mxCell id="ZJRuLnJXH88VPLt5yp65-27" value="1" style="text;html=1;align=center;verticalAlign=middle;resizable=0;points=[];autosize=1;strokeColor=none;fillColor=none;" parent="1" vertex="1">
          <mxGeometry x="280" y="13" width="30" height="30" as="geometry" />
        </mxCell>
        <mxCell id="ZJRuLnJXH88VPLt5yp65-28" value="1" style="text;html=1;align=center;verticalAlign=middle;resizable=0;points=[];autosize=1;strokeColor=none;fillColor=none;" parent="1" vertex="1">
          <mxGeometry x="330" y="43" width="30" height="30" as="geometry" />
        </mxCell>
        <mxCell id="ZJRuLnJXH88VPLt5yp65-29" value="1" style="text;html=1;align=center;verticalAlign=middle;resizable=0;points=[];autosize=1;strokeColor=none;fillColor=none;" parent="1" vertex="1">
          <mxGeometry x="270" y="-82" width="30" height="30" as="geometry" />
        </mxCell>
        <mxCell id="ZJRuLnJXH88VPLt5yp65-30" value="1..*" style="text;html=1;align=center;verticalAlign=middle;resizable=0;points=[];autosize=1;strokeColor=none;fillColor=none;" parent="1" vertex="1">
          <mxGeometry x="265" y="-101" width="40" height="30" as="geometry" />
        </mxCell>
        <mxCell id="ZJRuLnJXH88VPLt5yp65-32" value="1..*" style="text;html=1;align=center;verticalAlign=middle;resizable=0;points=[];autosize=1;strokeColor=none;fillColor=none;" parent="1" vertex="1">
          <mxGeometry x="510" y="-121" width="40" height="30" as="geometry" />
        </mxCell>
        <mxCell id="ZJRuLnJXH88VPLt5yp65-33" value="1..*" style="text;html=1;align=center;verticalAlign=middle;resizable=0;points=[];autosize=1;strokeColor=none;fillColor=none;" parent="1" vertex="1">
          <mxGeometry x="370" y="-170" width="40" height="30" as="geometry" />
        </mxCell>
      </root>
    </mxGraphModel>
  </diagram>
</mxfile>
